<svg xmlns="http://www.w3.org/2000/svg" version="1.1" xmlns:xlink="http://www.w3.org/1999/xlink" xmlns:svgjs="http://svgjs.dev/svgjs" width="1440" height="450" preserveAspectRatio="none" viewBox="0 0 1440 450"><g mask="url(&quot;#SvgjsMask1799&quot;)" fill="none"><rect width="1440" height="450" x="0" y="0" fill="url(&quot;#SvgjsLinearGradient1800&quot;)"></rect><path d="M1440 0L1348 0L1440 81.9z" fill="rgba(255, 255, 255, .1)"></path><path d="M1348 0L1440 81.9L1440 86.46000000000001L860.0699999999999 0z" fill="rgba(255, 255, 255, .075)"></path><path d="M860.0699999999999 0L1440 86.46000000000001L1440 177.37L806.5699999999999 0z" fill="rgba(255, 255, 255, .05)"></path><path d="M806.5699999999999 0L1440 177.37L1440 300.25L323.3399999999999 0z" fill="rgba(255, 255, 255, .025)"></path><path d="M0 450L270.63 450L0 434.87z" fill="rgba(0, 0, 0, .1)"></path><path d="M0 434.87L270.63 450L587.5699999999999 450L0 239.34z" fill="rgba(0, 0, 0, .075)"></path><path d="M0 239.34L587.5699999999999 450L691.9599999999999 450L0 144.53z" fill="rgba(0, 0, 0, .05)"></path><path d="M0 144.52999999999997L691.9599999999999 450L1173.1699999999998 450L0 133.16999999999996z" fill="rgba(0, 0, 0, .025)"></path></g><defs><mask id="SvgjsMask1799"><rect width="1440" height="450" fill="#ffffff"></rect></mask><linearGradient x1="17.19%" y1="-55%" x2="82.81%" y2="155%" gradientUnits="userSpaceOnUse" id="SvgjsLinearGradient1800"><stop stop-color="rgba(142, 199, 232, 1)" offset="0"></stop><stop stop-color="rgba(45, 111, 247, 0.85)" offset="1"></stop></linearGradient></defs></svg>