<svg xmlns="http://www.w3.org/2000/svg" version="1.1" xmlns:xlink="http://www.w3.org/1999/xlink" xmlns:svgjs="http://svgjs.dev/svgjs" width="1920" height="450" preserveAspectRatio="none" viewBox="0 0 1920 450"><g mask="url(&quot;#SvgjsMask2143&quot;)" fill="none"><rect width="1920" height="450" x="0" y="0" fill="url(&quot;#SvgjsLinearGradient2144&quot;)"></rect><path d="M1920 0L1591.55 0L1920 88.78z" fill="rgba(255, 255, 255, .1)"></path><path d="M1591.55 0L1920 88.78L1920 278.31L855.64 0z" fill="rgba(255, 255, 255, .075)"></path><path d="M855.6400000000001 0L1920 278.31L1920 341.7L501.1400000000001 0z" fill="rgba(255, 255, 255, .05)"></path><path d="M501.1400000000001 0L1920 341.7L1920 373.34999999999997L243.05000000000013 0z" fill="rgba(255, 255, 255, .025)"></path><path d="M0 450L122.87 450L0 414.61z" fill="rgba(0, 0, 0, .1)"></path><path d="M0 414.61L122.87 450L226.77 450L0 331.21000000000004z" fill="rgba(0, 0, 0, .075)"></path><path d="M0 331.21L226.77 450L416.28 450L0 172.89z" fill="rgba(0, 0, 0, .05)"></path><path d="M0 172.89L416.28 450L845.64 450L0 79.43999999999998z" fill="rgba(0, 0, 0, .025)"></path></g><defs><mask id="SvgjsMask2143"><rect width="1920" height="450" fill="#ffffff"></rect></mask><linearGradient x1="19.14%" y1="-81.67%" x2="80.86%" y2="181.67%" gradientUnits="userSpaceOnUse" id="SvgjsLinearGradient2144"><stop stop-color="rgba(142, 199, 232, 1)" offset="0"></stop><stop stop-color="rgba(45, 111, 247, 0.85)" offset="1"></stop></linearGradient></defs></svg>